<?xml version="1.0" encoding="utf-8"?>
<!-- Generator: Adobe Illustrator 24.2.0, SVG Export Plug-In . SVG Version: 6.00 Build 0)  -->
<svg version="1.1" id="Layer_1" xmlns="http://www.w3.org/2000/svg" xmlns:xlink="http://www.w3.org/1999/xlink" x="0px" y="0px"
	 viewBox="0 0 100 100" style="enable-background:new 0 0 100 100;" xml:space="preserve">
<style type="text/css">
	.st0{font-family:'ArialMT';}
	.st1{font-size:12px;}
</style>
<text class="st0 st1"> </text>
<g>
	<path d="M47.5,8.4l0.1-7.6l2.3,0c2.1,0,3.4,1.5,3.4,3.8c-0.1,2.4-1.4,3.8-3.7,3.8L47.5,8.4z M49.6,7.9c2,0,3.1-1.2,3.1-3.3
		c0-2.1-1-3.3-2.9-3.3l-1.7,0L48,7.9L49.6,7.9z"/>
	<path d="M54.5,5.8c0.3-1.7,1.5-2.8,2.9-2.5c1.4,0.2,2.2,1.6,2,3.3c-0.3,1.7-1.5,2.8-2.9,2.5C55,8.8,54.2,7.5,54.5,5.8z M56.5,8.6
		c1.2,0.2,2.1-0.8,2.3-2.1c0.2-1.3-0.4-2.6-1.5-2.7c-1.2-0.2-2.1,0.8-2.3,2.1C54.8,7.2,55.3,8.4,56.5,8.6z"/>
	<path d="M61.7,4.1l0.5,0.2l-0.3,0.8l0,0c0.4-0.5,1-0.7,1.7-0.4c0.8,0.3,1.1,0.8,1.1,1.5l0,0c0.4-0.6,1.1-0.8,1.9-0.5
		c1,0.3,1.4,1.2,1,2.4l-1.2,3.6l-0.5-0.2l1.2-3.6c0.3-0.9,0-1.5-0.8-1.8c-0.9-0.3-1.6,0.2-1.8,1l-1.2,3.6L63,10.5l1.2-3.7
		c0.3-0.8,0-1.5-0.8-1.8c-0.8-0.3-1.6,0.2-1.9,1l-1.2,3.5l-0.5-0.2L61.7,4.1z"/>
	<path d="M70.3,7.3l0.5,0.2l-2.5,5.1l-0.5-0.2L70.3,7.3z M71.3,5.8c0.2,0.1,0.3,0.3,0.2,0.5c-0.1,0.2-0.3,0.3-0.5,0.2
		c-0.2-0.1-0.3-0.3-0.2-0.5C70.9,5.8,71.1,5.7,71.3,5.8z"/>
	<path d="M70.1,13.6l-0.4-0.3l3-4.9L73,8.7l-0.5,0.8l0,0c0.5-0.4,1.2-0.4,1.9,0c1,0.6,1.3,1.7,0.6,2.8l-1.9,3.2l-0.5-0.3l1.9-3.2
		c0.5-0.8,0.3-1.7-0.5-2.2c-0.8-0.5-1.7-0.3-2.2,0.6L70.1,13.6z"/>
	<path d="M75.9,13.9c1.1-1.3,2.7-1.6,3.8-0.7c1.1,0.9,1.1,2.5,0.1,3.9c-1.1,1.3-2.7,1.7-3.8,0.7C74.9,16.8,74.8,15.2,75.9,13.9z
		 M76.3,17.3c0.9,0.7,2.2,0.4,3.1-0.7c0.9-1.1,1-2.4,0-3.1s-2.2-0.4-3.1,0.7C75.5,15.3,75.3,16.6,76.3,17.3z"/>
	<path d="M80.5,21.7l5.9-4.8l1.5,1.8c1.4,1.7,1.1,3.5-0.8,5c-1.9,1.5-3.8,1.4-5.2-0.4L80.5,21.7z M82.3,23c1.3,1.6,2.9,1.6,4.5,0.3
		c1.6-1.3,1.9-2.9,0.7-4.3l-1.1-1.3l-5.1,4.2L82.3,23z"/>
	<path d="M87,25.4c1.5-0.9,3.1-0.6,3.8,0.6c0.7,1.2,0.2,2.8-1.3,3.6c-1.5,0.9-3.1,0.6-3.8-0.6C85,27.8,85.5,26.2,87,25.4z
		 M86.1,28.7c0.6,1,1.9,1.1,3.1,0.4c1.2-0.7,1.7-1.9,1.1-2.9c-0.6-1-1.9-1.1-3.1-0.4C86.1,26.5,85.5,27.7,86.1,28.7z"/>
	<path d="M92.9,29.9l0.2,0.5l-0.8,0.3l0,0c0.6,0,1.2,0.4,1.4,1.1c0.3,0.8,0.1,1.4-0.5,1.8l0,0c0.7,0,1.3,0.4,1.6,1.2
		c0.4,1-0.1,1.9-1.2,2.3l-3.6,1.4L89.9,38l3.6-1.4c0.9-0.3,1.2-1,0.9-1.8c-0.3-0.9-1.1-1.1-1.9-0.8l-3.5,1.3L88.8,35l3.6-1.4
		c0.8-0.3,1.2-0.9,0.9-1.7c-0.3-0.8-1.1-1.1-2-0.8l-3.5,1.3l-0.2-0.5L92.9,29.9z"/>
	<path d="M95.9,38.6l0.1,0.5l-5.5,1.3l-0.1-0.5L95.9,38.6z M97.7,38.4c0,0.2-0.1,0.4-0.3,0.5c-0.2,0-0.4-0.1-0.5-0.3
		c-0.1-0.2,0.1-0.4,0.3-0.5C97.4,38.1,97.6,38.2,97.7,38.4z"/>
	<path d="M90.9,42.4l-0.1-0.5l5.6-0.8l0.1,0.5l-0.9,0.1l0,0.1c0.6,0.2,1.1,0.7,1.2,1.5c0.2,1.1-0.5,2-1.7,2.2l-3.7,0.5l-0.1-0.5
		L95,45c1-0.1,1.5-0.8,1.4-1.7c-0.1-0.9-0.9-1.5-1.8-1.4L90.9,42.4z"/>
	<path d="M94.3,47c1.7,0,3,1,3,2.4S96.2,52,94.4,52c-1.7,0-3-1-3-2.4C91.4,48.1,92.6,47.1,94.3,47z M91.9,49.6
		c0,1.2,1.1,1.9,2.5,1.9c1.4,0,2.5-0.8,2.4-2c0-1.2-1.1-1.9-2.5-1.9C93,47.6,91.9,48.4,91.9,49.6z"/>
	<path d="M91.3,55.6l7.5,1.5l-0.5,2.3c-0.4,2.1-2.1,3.1-4.4,2.6c-2.4-0.5-3.5-2-3-4.3L91.3,55.6z M91.3,57.8c-0.4,2,0.6,3.3,2.7,3.7
		c2,0.4,3.4-0.4,3.8-2.2l0.3-1.7l-6.5-1.3L91.3,57.8z"/>
	<path d="M92.5,63c1.6,0.6,2.4,2,1.9,3.3c-0.5,1.3-2,1.9-3.6,1.3c-1.6-0.6-2.4-2-1.9-3.3C89.4,63,90.9,62.4,92.5,63z M89.3,64.5
		c-0.4,1.1,0.4,2.2,1.6,2.7c1.3,0.5,2.6,0.2,3-1s-0.4-2.2-1.6-2.7C91,63,89.8,63.4,89.3,64.5z"/>
	<path d="M92.8,70.5l-0.3,0.4l-0.8-0.4l0,0c0.4,0.5,0.4,1.1,0.1,1.8c-0.4,0.7-1,0.9-1.7,0.8l0,0c0.5,0.5,0.5,1.3,0.1,2
		c-0.5,0.9-1.5,1.1-2.5,0.5l-3.3-1.9l0.3-0.5l3.3,1.9c0.8,0.5,1.5,0.3,1.9-0.4c0.5-0.8,0.2-1.6-0.6-2l-3.3-1.9l0.3-0.5l3.3,1.9
		c0.7,0.4,1.5,0.3,1.9-0.4c0.4-0.8,0.1-1.6-0.7-2l-3.2-1.8l0.3-0.5L92.8,70.5z"/>
	<path d="M87.9,78.2l-0.3,0.4L83,75.2l0.3-0.4L87.9,78.2z M89.2,79.5c-0.1,0.2-0.4,0.2-0.6,0.1c-0.2-0.1-0.2-0.4-0.1-0.6
		c0.1-0.2,0.4-0.2,0.6-0.1C89.3,79.1,89.3,79.3,89.2,79.5z"/>
	<path d="M81.8,76.8l0.4-0.4l4.2,3.8L86,80.6L85.4,80l0,0c0.3,0.6,0.1,1.3-0.4,1.9c-0.8,0.9-1.9,0.9-2.8,0.1l-2.8-2.5l0.4-0.4
		l2.7,2.5c0.7,0.6,1.6,0.6,2.2-0.1c0.6-0.7,0.6-1.6-0.1-2.3L81.8,76.8z"/>
	<path d="M80.4,82.4c1.1,1.3,1.1,2.9,0,3.9c-1.1,0.9-2.7,0.6-3.8-0.7c-1.1-1.3-1.1-2.9,0-3.9C77.7,80.8,79.3,81.1,80.4,82.4z
		 M76.9,82.1c-0.9,0.8-0.8,2.1,0.1,3.1c0.9,1,2.2,1.4,3.1,0.7c0.9-0.8,0.8-2.1-0.1-3.1C79.1,81.7,77.8,81.4,76.9,82.1z"/>
	<path d="M71.8,85.5l3.6,6.7l-2,1.1c-1.9,1-3.7,0.4-4.8-1.7c-1.1-2.1-0.6-4,1.4-5.1L71.8,85.5z M70.2,86.9c-1.8,0.9-2.1,2.5-1.2,4.4
		c1,1.8,2.5,2.4,4.1,1.5l1.5-0.8l-3.1-5.8L70.2,86.9z"/>
	<path d="M66.9,91.1c0.6,1.6,0,3.1-1.4,3.6c-1.4,0.5-2.7-0.4-3.3-2c-0.6-1.6,0-3.1,1.4-3.6C65,88.7,66.4,89.5,66.9,91.1z M63.8,89.6
		c-1.1,0.4-1.5,1.7-1,3c0.4,1.3,1.5,2.1,2.6,1.7c1.1-0.4,1.5-1.7,1-3C66,90,64.9,89.2,63.8,89.6z"/>
	<path d="M61.3,96l-0.5,0.1l-0.1-0.9l-0.1,0c-0.1,0.6-0.6,1.1-1.3,1.2c-0.8,0.1-1.4-0.2-1.7-0.8l0,0c-0.1,0.7-0.6,1.2-1.5,1.3
		c-1.1,0.2-1.8-0.4-2-1.6l-0.6-3.8l0.5-0.1l0.6,3.8c0.1,0.9,0.7,1.4,1.5,1.2c0.9-0.2,1.3-0.9,1.1-1.7L56.6,91l0.5-0.1l0.6,3.8
		c0.1,0.8,0.7,1.3,1.5,1.2c0.9-0.1,1.3-0.9,1.2-1.8l-0.6-3.7l0.5-0.1L61.3,96z"/>
	<path d="M52.2,97.2l-0.5,0l-0.2-5.7l0.5,0L52.2,97.2z M52,99c-0.2,0-0.4-0.2-0.4-0.4c0-0.2,0.2-0.4,0.4-0.4c0.2,0,0.4,0.2,0.4,0.4
		C52.4,98.8,52.2,99,52,99z"/>
	<path d="M49.4,91.6l0.5,0l-0.3,5.7l-0.5,0l0-0.9l-0.1,0c-0.3,0.6-0.9,0.9-1.7,0.9c-1.2-0.1-1.9-0.9-1.8-2.1l0.2-3.7l0.5,0l-0.2,3.7
		c0,1,0.5,1.6,1.5,1.7c0.9,0,1.6-0.6,1.7-1.6L49.4,91.6z"/>
	<path d="M44.2,94.1c-0.3,1.7-1.6,2.7-3,2.4s-2.2-1.7-1.9-3.4c0.3-1.7,1.6-2.7,3-2.4C43.7,91,44.5,92.4,44.2,94.1z M42.2,91.2
		c-1.2-0.2-2.1,0.7-2.4,2.1c-0.3,1.3,0.3,2.6,1.4,2.8c1.2,0.2,2.1-0.7,2.4-2.1C43.9,92.6,43.4,91.4,42.2,91.2z"/>
	<path d="M36.4,89.4l-2.9,7l-2.1-0.9c-2-0.8-2.6-2.6-1.7-4.8c0.9-2.2,2.7-3,4.8-2.1L36.4,89.4z M34.3,89c-1.8-0.8-3.3,0-4.1,1.9
		c-0.8,1.9-0.3,3.4,1.4,4.2l1.6,0.7l2.6-6.1L34.3,89z"/>
	<path d="M28.9,89.2c-0.9,1.5-2.4,2-3.7,1.2c-1.2-0.7-1.5-2.3-0.6-3.8c0.9-1.5,2.4-2,3.7-1.2C29.6,86.1,29.8,87.7,28.9,89.2z
		 M28.1,85.8c-1-0.6-2.2-0.1-2.9,1.1c-0.7,1.2-0.7,2.5,0.4,3.1c1,0.6,2.2,0.1,2.9-1.1C29.2,87.7,29.1,86.4,28.1,85.8z"/>
	<path d="M21.6,87.9l-0.4-0.3l0.6-0.7l0,0c-0.5,0.3-1.2,0.2-1.8-0.3c-0.6-0.5-0.7-1.2-0.5-1.8l0,0c-0.6,0.3-1.3,0.3-2-0.3
		c-0.8-0.7-0.8-1.7,0-2.6L20,79l0.4,0.4l-2.5,2.9c-0.6,0.7-0.6,1.4,0,2c0.7,0.6,1.5,0.5,2.1-0.2l2.5-2.8l0.4,0.4l-2.5,2.9
		c-0.6,0.6-0.6,1.4,0,1.9c0.7,0.6,1.5,0.5,2.1-0.3l2.4-2.8l0.4,0.3L21.6,87.9z"/>
	<path d="M13.4,82.6c-0.1-0.2-0.1-0.4,0-0.6c0.2-0.1,0.4-0.1,0.6,0c0.2,0.2,0.1,0.4,0,0.6C13.8,82.8,13.5,82.8,13.4,82.6z
		 M14.9,81.6l-0.4-0.4l4.3-3.8l0.4,0.4L14.9,81.6z"/>
	<path d="M17.5,75.9l0.3,0.4l-4.6,3.4l-0.3-0.4l0.7-0.5l0,0c-0.6,0.1-1.3-0.1-1.8-0.8c-0.7-0.9-0.5-2,0.5-2.8l3-2.2l0.3,0.4l-3,2.2
		c-0.8,0.6-0.9,1.4-0.4,2.2c0.6,0.7,1.5,0.9,2.3,0.3L17.5,75.9z"/>
	<path d="M12.2,73.5c-1.5,0.8-3.1,0.5-3.8-0.8c-0.7-1.3-0.1-2.8,1.4-3.6c1.5-0.8,3.1-0.5,3.8,0.8C14.3,71.1,13.8,72.6,12.2,73.5z
		 M13.2,70.1c-0.6-1-1.9-1.2-3.1-0.5c-1.2,0.7-1.8,1.8-1.2,2.9c0.6,1,1.9,1.2,3.1,0.5C13.2,72.3,13.8,71.2,13.2,70.1z"/>
	<path d="M11,64.5l-7.3,2.2L3,64.5c-0.6-2.1,0.4-3.7,2.6-4.4c2.3-0.7,4,0.2,4.7,2.3L11,64.5z M9.9,62.6c-0.6-1.9-2.1-2.6-4.1-2
		c-2,0.6-2.8,1.9-2.3,3.7L4,66l6.3-1.9L9.9,62.6z"/>
	<path d="M6.4,58.6c-1.7,0.2-3.1-0.6-3.3-2c-0.2-1.4,0.9-2.6,2.6-2.9c1.7-0.2,3.1,0.6,3.3,2C9.2,57.1,8.1,58.3,6.4,58.6z M8.5,55.8
		c-0.2-1.2-1.3-1.8-2.7-1.6c-1.4,0.2-2.3,1.1-2.2,2.3C3.7,57.6,5,58.2,6.3,58C7.7,57.9,8.6,57,8.5,55.8z"/>
	<path d="M2.7,52.1l0-0.5l0.9,0l0-0.1C3,51.4,2.6,50.8,2.6,50c0-0.8,0.5-1.3,1.1-1.5l0,0c-0.7-0.2-1.1-0.9-1-1.7
		c0-1.1,0.8-1.7,2-1.7l3.8,0.1l0,0.5l-3.8-0.1c-0.9,0-1.5,0.4-1.5,1.3c0,0.9,0.6,1.4,1.5,1.5l3.8,0.1l0,0.5l-3.9-0.1
		c-0.9,0-1.5,0.4-1.5,1.3c0,0.9,0.6,1.5,1.5,1.5l3.7,0.1l0,0.5L2.7,52.1z"/>
	<path d="M1.5,42.4c0-0.2,0.2-0.4,0.5-0.3c0.2,0,0.4,0.2,0.3,0.5c0,0.2-0.2,0.4-0.5,0.4C1.6,42.9,1.5,42.6,1.5,42.4z M3.3,43
		l0.1-0.5L9,43.3l-0.1,0.5L3.3,43z"/>
	<path d="M9.3,41.4l-0.1,0.5l-5.5-1.4L3.8,40l0.9,0.2l0-0.1c-0.5-0.4-0.7-1.1-0.5-1.9c0.3-1.1,1.2-1.7,2.5-1.4l3.6,0.9l-0.1,0.5
		l-3.6-0.9c-0.9-0.2-1.7,0.2-1.9,1.1c-0.2,0.9,0.2,1.7,1.2,2L9.3,41.4z"/>
	<path d="M7.9,35.7c-1.6-0.7-2.3-2.1-1.8-3.4s2.1-1.8,3.7-1.2c1.6,0.7,2.4,2.1,1.8,3.4C11,35.8,9.5,36.3,7.9,35.7z M11.1,34.3
		c0.4-1.1-0.3-2.2-1.6-2.7c-1.3-0.5-2.6-0.2-3,0.9c-0.4,1.1,0.3,2.2,1.6,2.7C9.4,35.7,10.7,35.4,11.1,34.3z"/>
	<path d="M14,29l-6.3-4.3L9,22.8c1.2-1.8,3.1-2,5.1-0.7c2,1.4,2.4,3.2,1.2,5.1L14,29z M14.8,27c1.1-1.7,0.7-3.2-1-4.4
		c-1.7-1.1-3.3-1-4.4,0.6l-1,1.4l5.5,3.7L14.8,27z"/>
	<path d="M15.7,21.7c-1.3-1.2-1.5-2.8-0.5-3.8c1-1.1,2.6-1,3.9,0.2c1.3,1.2,1.5,2.8,0.5,3.8C18.6,23,17,22.9,15.7,21.7z M19.2,21.6
		c0.8-0.9,0.5-2.2-0.5-3.1c-1-0.9-2.3-1.1-3.1-0.3c-0.8,0.9-0.5,2.2,0.5,3.1C17.1,22.3,18.4,22.5,19.2,21.6z"/>
	<path d="M18.3,14.7l0.4-0.3l0.5,0.7l0,0c-0.2-0.6,0-1.2,0.6-1.7c0.6-0.5,1.3-0.5,1.9-0.1l0,0c-0.2-0.7,0-1.4,0.7-1.9
		c0.9-0.7,1.8-0.5,2.6,0.5l2.3,3L27,15.3l-2.3-3c-0.6-0.7-1.3-0.9-1.9-0.4c-0.7,0.6-0.7,1.4-0.2,2.1l2.3,3l-0.4,0.3l-2.4-3.1
		c-0.5-0.7-1.2-0.9-1.9-0.3c-0.7,0.5-0.7,1.4-0.2,2.1l2.3,2.9l-0.4,0.3L18.3,14.7z"/>
	<path d="M25.1,7.7c0.2-0.1,0.4,0,0.6,0.1c0.1,0.2,0,0.4-0.1,0.6c-0.2,0.1-0.4,0.1-0.6-0.1C24.8,8.1,24.9,7.8,25.1,7.7z M25.8,9.4
		l0.5-0.3l2.9,4.9l-0.5,0.3L25.8,9.4z"/>
	<path d="M30.9,13.1l-0.5,0.2L28,8.1l0.5-0.2l0.4,0.8l0,0c0-0.6,0.4-1.3,1.1-1.6c1-0.5,2.1-0.1,2.6,1l1.6,3.4l-0.5,0.2l-1.6-3.4
		c-0.4-0.9-1.2-1.2-2.1-0.8c-0.8,0.4-1.2,1.3-0.8,2.2L30.9,13.1z"/>
	<path d="M34.4,8.4c-0.5-1.6,0.1-3.1,1.5-3.6c1.4-0.4,2.7,0.4,3.2,2.1c0.5,1.6-0.1,3.1-1.5,3.6C36.2,10.9,34.9,10,34.4,8.4z
		 M37.4,10c1.1-0.4,1.5-1.6,1.1-2.9c-0.4-1.3-1.5-2.1-2.6-1.8c-1.1,0.4-1.5,1.6-1.1,2.9C35.3,9.5,36.3,10.4,37.4,10z"/>
</g>
</svg>
